HIERARCHY
ROOT hip
{
	OFFSET 0.000000 0.000000 0.000000
	CHANNELS 6 Xposition Yposition Zposition Xrotation Zrotation Yrotation 
	JOINT abdomen
	{
		OFFSET 0.000000 3.422050 0.000000
		CHANNELS 3 Xrotation Zrotation Yrotation 
		JOINT chest
		{
			OFFSET 0.000000 8.486693 -0.684411
			CHANNELS 3 Xrotation Zrotation Yrotation 
			JOINT neck
			{
				OFFSET 0.000000 10.266162 -0.273764
				CHANNELS 3 Xrotation Zrotation Yrotation 
				JOINT head
				{
					OFFSET 0.000000 3.148285 0.000000
					CHANNELS 3 Xrotation Zrotation Yrotation 
					End Site
					{
						OFFSET 0.000000 3.148289 0.000000
					}
				}
			}
			JOINT lCollar
			{
				OFFSET 3.422053 6.707223 -0.821293
				CHANNELS 3 Yrotation Zrotation Xrotation 
				JOINT lShldr
				{
					OFFSET 3.285171 0.000000 0.000000
					CHANNELS 3 Zrotation Yrotation Xrotation 
					JOINT lForeArm
					{
						OFFSET 10.129278 0.000000 0.000000
						CHANNELS 3 Yrotation Zrotation Xrotation 
						JOINT lHand
						{
							OFFSET 8.486692 0.000000 0.000000
							CHANNELS 3 Zrotation Yrotation Xrotation 
							End Site
							{
								OFFSET 4.106464 0.000000 0.000000
							}
						}
					}
				}
			}
			JOINT rCollar
			{
				OFFSET -3.558935 6.707223 -0.821293
				CHANNELS 3 Yrotation Zrotation Xrotation 
				JOINT rShldr
				{
					OFFSET -3.148289 0.000000 0.000000
					CHANNELS 3 Zrotation Yrotation Xrotation 
					JOINT rForeArm
					{
						OFFSET -10.266159 0.000000 0.000000
						CHANNELS 3 Yrotation Zrotation Xrotation 
						JOINT rHand
						{
							OFFSET -8.349810 0.000000 0.000000
							CHANNELS 3 Zrotation Yrotation Xrotation 
							End Site
							{
								OFFSET -4.106464 0.000000 0.000000
							}
						}
					}
				}
			}
		}
	}
	JOINT lThigh
	{
		OFFSET 5.338403 -1.642589 1.368821
		CHANNELS 3 Xrotation Zrotation Yrotation 
		JOINT lShin
		{
			OFFSET -2.053232 -20.121670 0.000000
			CHANNELS 3 Xrotation Zrotation Yrotation 
			JOINT lFoot
			{
				OFFSET 0.000000 -19.300380 -1.231939
				CHANNELS 3 Xrotation Yrotation Zrotation 
				End Site
				{
					OFFSET 0.000000 -2.463878 4.653993
				}
			}
		}
	}
	JOINT rThigh
	{
		OFFSET -5.338403 -1.642589 1.368821
		CHANNELS 3 Xrotation Zrotation Yrotation 
		JOINT rShin
		{
			OFFSET 2.053232 -20.121670 0.000000
			CHANNELS 3 Xrotation Zrotation Yrotation 
			JOINT rFoot
			{
				OFFSET 0.000000 -19.300380 -1.231939
				CHANNELS 3 Xrotation Yrotation Zrotation 
				End Site
				{
					OFFSET 0.000000 -2.463878 4.653993
				}
			}
		}
	}
}
MOTION
Frames: 6
Frame Time: 0.049897
0.000000 43.528500 0.000000 0.000000 0.000000 0.000000 0.000000 0.000000 0.000000 0.000000 0.000000 0.000000 0.000000 0.000000 0.000000 0.000000 0.000000 0.000000 0.000000 0.000000 0.000000 0.000000 0.000000 0.000000 0.000000 0.000000 0.000000 0.000000 0.000000 0.000000 0.000000 0.000000 0.000000 0.000000 0.000000 0.000000 0.000000 0.000000 0.000000 0.000000 0.000000 0.000000 0.000000 0.000000 0.000000 0.000000 0.000000 0.000000 0.000000 0.000000 0.000000 0.000000 0.000000 0.000000 0.000000 0.000000 0.000000 0.000000 0.000000 0.000000 
15.994888 -0.004688 0.000000 89.996941 0.000000 0.000000 -4.003257 0.000000 0.000000 -4.003257 0.000000 0.000000 -5.002337 -0.001827 52.998684 3.997962 -0.001454 16.996777 0.000000 0.000000 0.000000 36.998123 -27.001486 -60.002865 -117.000420 0.001446 19.998917 14.997999 0.000052 19.996960 0.000000 0.000000 0.000000 -69.999763 26.996868 -59.998604 116.994965 -0.004265 20.001947 -16.001858 -0.001863 19.999792 0.000000 5.998535 0.000000 2.999106 0.000000 0.000000 66.999611 0.000001 -0.000001 0.000000 -6.002029 0.000000 0.000000 0.000000 0.000000 66.999611 0.000001 -0.000001 
15.994888 -0.004688 0.000000 89.996941 0.000000 0.000000 -4.003258 0.000000 0.000000 -4.003258 0.000000 0.000000 -5.002337 -0.001827 52.998684 3.598828 -0.001445 16.996830 0.000000 0.000000 0.000000 36.998123 -27.001486 -60.002865 -117.000435 0.001445 19.998920 14.997999 0.000052 19.996960 0.000000 0.000000 0.000000 -69.999763 26.996870 -59.998608 116.994965 -0.004265 20.001947 -16.001858 -0.001863 19.999792 0.000000 5.998536 0.000000 2.999106 0.000000 0.000000 66.999611 0.000001 -0.000001 0.000000 -6.002029 0.000000 0.000000 0.000000 0.000000 66.999611 0.000001 -0.000001 
15.994888 -0.004688 0.000000 89.996941 0.000000 0.000000 -4.003257 0.000000 0.000000 -4.003257 0.000000 0.000000 -5.002337 -0.001827 52.998684 3.199533 -0.001435 16.996885 0.000000 0.000000 0.000000 36.998123 -27.001486 -60.002865 -117.000420 0.001446 19.998917 14.998001 0.000052 19.996960 0.000000 0.000000 0.000000 -69.999763 26.996866 -59.998604 116.994965 -0.004265 20.001947 -16.001860 -0.001863 19.999794 0.000000 5.998535 0.000000 2.999106 0.000000 0.000000 66.999611 0.000001 -0.000001 0.000000 -6.002029 0.000000 0.000000 0.000000 0.000000 66.999611 0.000001 -0.000001 
15.994888 -0.004688 0.000000 89.996941 0.000000 0.000000 -4.003258 0.000000 0.000000 -4.003258 0.000000 0.000000 -5.002337 -0.001827 52.998688 2.800086 -0.001425 16.996939 0.000000 0.000000 0.000000 36.998123 -27.001486 -60.002865 -117.000420 0.001445 19.998919 14.998001 0.000051 19.996962 0.000000 0.000000 0.000000 -69.999771 26.996872 -59.998608 116.994965 -0.004264 20.001947 -16.001860 -0.001863 19.999794 0.000000 5.998536 0.000000 2.999106 0.000000 0.000000 66.999611 0.000001 -0.000001 0.000000 -6.002029 0.000000 0.000000 0.000000 0.000000 66.999611 0.000001 -0.000001 
15.994888 -0.004688 0.000000 89.996941 0.000000 0.000000 -4.003257 0.000000 0.000000 -4.003257 0.000000 0.000000 -5.002337 -0.001827 52.998684 2.400500 -0.001415 16.996998 0.000000 0.000000 0.000000 36.998123 -27.001486 -60.002865 -117.000420 0.001446 19.998917 14.997999 0.000052 19.996960 0.000000 0.000000 0.000000 -69.999756 26.996866 -59.998604 116.994957 -0.004265 20.001945 -16.001858 -0.001863 19.999792 0.000000 5.998535 0.000000 2.999106 0.000000 0.000000 66.999611 0.000001 -0.000001 0.000000 -6.002029 0.000000 0.000000 0.000000 0.000000 66.999611 0.000001 -0.000001 
